# xmcd
#
# Track frame offsets: 
#        150
#        20972
#        39355
#        58072
#        79431
#        99646
#        125361
#        145968
#        169039
#        192102
#        217203
#        239688
#        259085
#        283054
#
# Disc length: 3982 seconds
#
# Revision: 2
# Processed by: cddbd v1.5.1PL0 Copyright (c) Steve Scherf et al.
# Submitted via: ExactAudioCopy v0.95a5
#
DISCID=db0f8c0e
DTITLE=劉若英 - LOVE情歌精選
DYEAR=2000
DGENRE=Pop
TTITLE0=成全
TTITLE1=收穫
TTITLE2=對面男生的房間
TTITLE3=很愛很愛你
TTITLE4=我等你
TTITLE5=後來
TTITLE6=花季未了
TTITLE7=為愛癡狂
TTITLE8=打了一把鑰匙給你
TTITLE9=遊子
TTITLE10=好久好久
TTITLE11=坦白
TTITLE12=到處亂走
TTITLE13=Love
EXTD=
EXTT0=
EXTT1=
EXTT2=
EXTT3=
EXTT4=
EXTT5=
EXTT6=
EXTT7=
EXTT8=
EXTT9=
EXTT10=
EXTT11=
EXTT12=
EXTT13=
PLAYORDER=
